<svg width="1456" height="142" viewBox="0 0 1456 142" fill="none" xmlns="http://www.w3.org/2000/svg">
<path fill-rule="evenodd" clip-rule="evenodd" d="M3.69928e-07 129.652C3.07455e-07 136.499 11.951 142 26.6934 142L711.128 142C721.433 142 730.818 139.245 735.239 134.922L801.507 70.1304C805.898 65.8377 815.186 63.0885 825.419 63.0529L1429.51 60.9494C1444.17 60.8984 1456 55.3633 1456 48.553V12.3968C1456 5.55024 1444.05 7.41849e-07 1429.31 7.41849e-07H26.6934C11.951 7.41849e-07 3.90401e-08 5.5114 8.2854e-08 12.358C2.54895e-07 39.2418 6.15164e-07 102.776 3.69928e-07 129.652Z" fill="#ED0031"/>
<path d="M0 19.7222H60.6667V1.79382e-05H0V19.7222Z" fill="#ED0031"/>
<path d="M0 142H60.6667V122.278H0V142Z" fill="#ED0031"/>
<path d="M1395.33 19.7222H1456V1.79382e-05H1395.33V19.7222Z" fill="#ED0031"/>
<path d="M1395.33 60.8571H1456V41.1349H1395.33V60.8571Z" fill="#ED0031"/>
</svg>
